# xmcd CD database file
#
# Track frame offsets:
#	150
#	48595
#	104295
#	148963
#	198376
#	255153
#
# Disc length: 4104 seconds
#
# Revision: 2
# Processed by: cddbd v1.5.2PL0 Copyright (c) Steve Scherf et al.
# Submitted via: CDex 1.51
#
DISCID=52100606
DTITLE=Art Blakey - Olympia, May 13th
DYEAR=1961
DGENRE=Jazz
TTITLE0=Moanin
TTITLE1=Close Your Eyes
TTITLE2=Dat Dere
TTITLE3=Round Midnight
TTITLE4=So Tired
TTITLE5=Night In Tunisia
EXTD=YEAR: 1961
EXTT0=
EXTT1=
EXTT2=
EXTT3=
EXTT4=
EXTT5=
PLAYORDER=
